<?xml version="1.0" encoding="iso-8859-1"?>
<!-- Generator: Adobe Illustrator 19.0.0, SVG Export Plug-In . SVG Version: 6.00 Build 0)  -->
<svg version="1.1" id="Capa_1" xmlns="http://www.w3.org/2000/svg" xmlns:xlink="http://www.w3.org/1999/xlink" x="0px" y="0px"
	 viewBox="0 0 512 512" style="enable-background:new 0 0 512 512;" xml:space="preserve">
<g>
	<g>
		<path d="M427,0H85c-8.284,0-15,6.716-15,15v482c0,8.284,6.716,15,15,15h342c8.284,0,15-6.716,15-15V15C442,6.716,435.284,0,427,0z
			 M412,482H100V30h312V482z"/>
	</g>
</g>
<g>
	<g>
		<path d="M316,90H196c-8.284,0-15,6.716-15,15s6.716,15,15,15h120c8.284,0,15-6.716,15-15S324.284,90,316,90z"/>
	</g>
</g>
<g>
	<g>
		<path d="M357,200H225c-8.284,0-15,6.716-15,15s6.716,15,15,15h132c8.284,0,15-6.716,15-15S365.284,200,357,200z"/>
	</g>
</g>
<g>
	<g>
		<circle cx="160" cy="215" r="20"/>
	</g>
</g>
<g>
	<g>
		<path d="M357,285.999H225c-8.284,0-15,6.716-15,15s6.716,15,15,15h132c8.284,0,15-6.716,15-15S365.284,285.999,357,285.999z"/>
	</g>
</g>
<g>
	<g>
		<circle cx="160" cy="301" r="20"/>
	</g>
</g>
<g>
	<g>
		<path d="M357,371.998H225c-8.284,0-15,6.716-15,15s6.716,15,15,15h132c8.284,0,15-6.716,15-15S365.284,371.998,357,371.998z"/>
	</g>
</g>
<g>
	<g>
		<circle cx="160" cy="387" r="20"/>
	</g>
</g>
<g>
</g>
<g>
</g>
<g>
</g>
<g>
</g>
<g>
</g>
<g>
</g>
<g>
</g>
<g>
</g>
<g>
</g>
<g>
</g>
<g>
</g>
<g>
</g>
<g>
</g>
<g>
</g>
<g>
</g>
</svg>
