<?xml version="1.0" encoding="iso-8859-1"?>
<!-- Generator: Adobe Illustrator 19.0.0, SVG Export Plug-In . SVG Version: 6.00 Build 0)  -->
<svg version="1.1" id="Layer_1" xmlns="http://www.w3.org/2000/svg" xmlns:xlink="http://www.w3.org/1999/xlink" x="0px" y="0px"
	 viewBox="0 0 330 330" style="enable-background:new 0 0 330 330;" xml:space="preserve">
<g id="XMLID_475_">
	<path id="XMLID_476_" d="M315,0H15C6.716,0,0,6.716,0,15v230c0,8.284,6.716,15,15,15h45v55c0,5.593,3.112,10.722,8.073,13.305
		c2.18,1.135,4.557,1.695,6.926,1.695c3.024,0,6.034-0.913,8.604-2.711L179.728,260H315c8.284,0,15-6.716,15-15V15
		C330,6.716,323.284,0,315,0z M300,230H175c-3.078,0-6.081,0.947-8.602,2.711L90,286.19V245c0-8.284-6.716-15-15-15H30V30h270V230z"
		/>
	<path id="XMLID_479_" d="M90,145c3.95,0,7.81-1.6,10.61-4.39c2.79-2.8,4.39-6.66,4.39-10.61c0-3.95-1.6-7.81-4.39-10.61
		C97.81,116.6,93.95,115,90,115c-3.95,0-7.82,1.6-10.61,4.39C76.6,122.19,75,126.05,75,130c0,3.95,1.6,7.82,4.39,10.61
		C82.19,143.4,86.05,145,90,145z"/>
	<path id="XMLID_481_" d="M165,145c3.95,0,7.81-1.6,10.61-4.39c2.79-2.8,4.39-6.66,4.39-10.61c0-3.95-1.6-7.81-4.39-10.61
		c-2.8-2.79-6.66-4.39-10.61-4.39c-3.95,0-7.82,1.6-10.61,4.39c-2.79,2.8-4.39,6.66-4.39,10.61c0,3.95,1.6,7.81,4.39,10.61
		C157.19,143.4,161.05,145,165,145z"/>
	<path id="XMLID_482_" d="M240,145c3.95,0,7.81-1.6,10.61-4.39c2.79-2.8,4.39-6.66,4.39-10.61c0-3.95-1.6-7.81-4.39-10.61
		c-2.8-2.79-6.66-4.39-10.61-4.39c-3.95,0-7.81,1.6-10.61,4.39c-2.79,2.79-4.39,6.66-4.39,10.61c0,3.95,1.6,7.82,4.39,10.61
		C232.19,143.4,236.05,145,240,145z"/>
</g>
<g>
</g>
<g>
</g>
<g>
</g>
<g>
</g>
<g>
</g>
<g>
</g>
<g>
</g>
<g>
</g>
<g>
</g>
<g>
</g>
<g>
</g>
<g>
</g>
<g>
</g>
<g>
</g>
<g>
</g>
</svg>
